<svg width="240" height="180" viewBox="0 0 240 180" fill="none" xmlns="http://www.w3.org/2000/svg">
  <rect width="240" height="180" rx="24" fill="none"/>
  <path d="M68 56c0-20 23-36 52-36s52 16 52 36v36c0 28-23 50-52 50S68 120 68 92V56Z" fill="#F5E6D0"/>
  <path d="M83 40 70 26c-5-5 3-14 8-9l13 11" stroke="#7A5A3A" stroke-width="6" stroke-linecap="round"/>
  <path d="M157 40 170 26c5-5-3-14-8-9l-13 11" stroke="#7A5A3A" stroke-width="6" stroke-linecap="round"/>
  <circle cx="98" cy="70" r="12" fill="#FFFFFF"/>
  <circle cx="142" cy="70" r="12" fill="#FFFFFF"/>
  <circle cx="102" cy="72" r="6" fill="#35383F"/>
  <circle cx="146" cy="72" r="6" fill="#35383F"/>
  <path d="M120 82c-7 0-12-4-12-10 0-3 2-6 5-7" stroke="#7A5A3A" stroke-width="5" stroke-linecap="round"/>
  <path d="M120 82c7 0 12-4 12-10 0-3-2-6-5-7" stroke="#7A5A3A" stroke-width="5" stroke-linecap="round"/>
  <path d="M92 92c-14 6-22 16-24 30" stroke="#7A5A3A" stroke-width="5" stroke-linecap="round"/>
  <path d="M148 92c14 6 22 16 24 30" stroke="#7A5A3A" stroke-width="5" stroke-linecap="round"/>
  <path d="M70 118c0-7 6-12 13-11l74 10c7 1 13 8 13 15v18c0 6-5 11-11 10l-78-8c-6-1-11-7-11-13v-21Z" fill="#FF4D4D"/>
  <path d="M86 112v44" stroke="#FFFFFF" stroke-width="4" stroke-linecap="round"/>
  <path d="M120 110v46" stroke="#FFFFFF" stroke-width="3" stroke-linecap="round" opacity="0.8"/>
  <path d="M150 116v40" stroke="#FFFFFF" stroke-width="3" stroke-linecap="round" opacity="0.8"/>
</svg>

